<svg width="164" height="30" viewBox="0 0 164 30" fill="none" xmlns="http://www.w3.org/2000/svg">
<rect width="164" height="30" rx="4" fill="#F6F8FA"/>
<path d="M16.0653 12.8182C15.7841 9.57102 13.4062 7.73011 10.108 7.73011C6.57955 7.73011 3.79261 10.0824 3.79261 14.4545C3.79261 18.8075 6.50284 21.179 10.108 21.179C13.9432 21.179 15.8864 18.5199 16.0653 16.2955L12.4602 16.2699C12.2812 17.3885 11.4886 18.0852 10.1847 18.0852C8.45241 18.0852 7.44886 16.858 7.44886 14.4545C7.44886 12.179 8.42045 10.8239 10.2102 10.8239C11.5781 10.8239 12.358 11.6293 12.4602 12.8182H16.0653ZM22.459 21.179C25.655 21.179 27.5471 19.1335 27.5471 16.1165C27.5471 13.0994 25.655 11.054 22.459 11.054C19.263 11.054 17.3709 13.0994 17.3709 16.1165C17.3709 19.1335 19.263 21.179 22.459 21.179ZM22.4846 18.571C21.5385 18.571 20.976 17.6314 20.976 16.0909C20.976 14.5504 21.5385 13.6108 22.4846 13.6108C23.3794 13.6108 23.9419 14.5504 23.9419 16.0909C23.9419 17.6314 23.3794 18.571 22.4846 18.571ZM28.9789 24.6818H32.5073V19.3892H32.5584C32.9675 20.3864 33.9135 21.1278 35.2942 21.1278C37.3908 21.1278 39.155 19.4915 39.155 16.0909C39.155 12.5369 37.263 11.054 35.3198 11.054C33.8624 11.054 32.9419 11.8977 32.5584 12.8949H32.4817V11.1818H28.9789V24.6818ZM32.4306 16.0909C32.4306 14.6335 33.0186 13.7642 33.9902 13.7642C34.9618 13.7642 35.5243 14.6335 35.5243 16.0909C35.5243 17.5483 34.9618 18.4176 33.9902 18.4176C33.0186 18.4176 32.4306 17.5227 32.4306 16.0909ZM42.4821 24.6818C44.9494 24.6818 46.1064 23.4418 46.6497 21.8182L50.2292 11.1818H46.5218L44.911 17.983H44.8088L43.2235 11.1818H39.5417L42.9934 21.4347L42.9167 21.6136C42.6802 22.157 41.9963 22.1378 41.127 21.831L40.3599 24.3366C40.9096 24.554 41.6703 24.6818 42.4821 24.6818ZM54.7676 21H58.2704V19.3892H58.3471C58.7562 20.3864 59.7022 21.1278 61.0829 21.1278C63.1795 21.1278 64.9437 19.4915 64.9437 16.0909C64.9437 12.5369 63.0517 11.054 61.1085 11.054C59.6511 11.054 58.7306 11.8977 58.3471 12.8949H58.296V7.90909H54.7676V21ZM58.2193 16.0909C58.2193 14.6335 58.8074 13.7642 59.7789 13.7642C60.7505 13.7642 61.313 14.6335 61.313 16.0909C61.313 17.5483 60.7505 18.4176 59.7789 18.4176C58.8074 18.4176 58.2193 17.5227 58.2193 16.0909ZM71.1248 21.179C73.8478 21.179 75.5993 19.875 75.9316 17.8295H72.7101C72.5055 18.3857 71.9238 18.6989 71.2015 18.6989C70.1532 18.6989 69.5396 18.0085 69.5396 17.0625V16.9091H75.9316V16.0909C75.9316 12.9652 74.014 11.054 71.0481 11.054C68.0055 11.054 66.0623 13.0739 66.0623 16.1165C66.0623 19.2933 67.9799 21.179 71.1248 21.179ZM69.5396 14.9659C69.5588 14.1158 70.2619 13.5341 71.1248 13.5341C72.0005 13.5341 72.6653 14.1222 72.6845 14.9659H69.5396ZM80.8999 7.90909H77.3714V21H80.8999V7.90909ZM87.4277 21.179C90.6238 21.179 92.5158 19.1335 92.5158 16.1165C92.5158 13.0994 90.6238 11.054 87.4277 11.054C84.2317 11.054 82.3397 13.0994 82.3397 16.1165C82.3397 19.1335 84.2317 21.179 87.4277 21.179ZM87.4533 18.571C86.5073 18.571 85.9448 17.6314 85.9448 16.0909C85.9448 14.5504 86.5073 13.6108 87.4533 13.6108C88.3482 13.6108 88.9107 14.5504 88.9107 16.0909C88.9107 17.6314 88.3482 18.571 87.4533 18.571ZM95.5105 21H99.3201L100.701 15.733H100.803L102.184 21H105.993L108.448 11.1818H104.92L103.846 17.1136H103.769L102.465 11.1818H99.0389L97.786 17.1648H97.7093L96.5843 11.1818H93.0559L95.5105 21ZM117.838 21.179C120.746 21.179 122.53 19.5107 122.568 16.9091H119.295C119.219 17.9382 118.662 18.4943 117.889 18.4943C116.962 18.4943 116.355 17.7017 116.355 16.0909C116.355 14.4801 116.962 13.6875 117.889 13.6875C118.669 13.6875 119.199 14.2436 119.295 15.2727H122.568C122.549 12.7159 120.727 11.054 117.838 11.054C114.642 11.054 112.75 13.0994 112.75 16.1165C112.75 19.1335 114.642 21.179 117.838 21.179ZM128.754 21.179C131.95 21.179 133.842 19.1335 133.842 16.1165C133.842 13.0994 131.95 11.054 128.754 11.054C125.558 11.054 123.666 13.0994 123.666 16.1165C123.666 19.1335 125.558 21.179 128.754 21.179ZM128.779 18.571C127.833 18.571 127.271 17.6314 127.271 16.0909C127.271 14.5504 127.833 13.6108 128.779 13.6108C129.674 13.6108 130.237 14.5504 130.237 16.0909C130.237 17.6314 129.674 18.571 128.779 18.571ZM138.828 21.1278C140.208 21.1278 141.154 20.3864 141.564 19.3892H141.64V21H145.143V7.90909H141.615V12.8949H141.564C141.18 11.8977 140.26 11.054 138.802 11.054C136.859 11.054 134.967 12.5369 134.967 16.0909C134.967 19.4915 136.731 21.1278 138.828 21.1278ZM140.132 18.4176C139.16 18.4176 138.598 17.5483 138.598 16.0909C138.598 14.6335 139.16 13.7642 140.132 13.7642C141.103 13.7642 141.691 14.6335 141.691 16.0909C141.691 17.5227 141.103 18.4176 140.132 18.4176ZM151.58 21.179C154.303 21.179 156.054 19.875 156.387 17.8295H153.165C152.961 18.3857 152.379 18.6989 151.657 18.6989C150.608 18.6989 149.995 18.0085 149.995 17.0625V16.9091H156.387V16.0909C156.387 12.9652 154.469 11.054 151.503 11.054C148.461 11.054 146.517 13.0739 146.517 16.1165C146.517 19.2933 148.435 21.179 151.58 21.179ZM149.995 14.9659C150.014 14.1158 150.717 13.5341 151.58 13.5341C152.456 13.5341 153.12 14.1222 153.14 14.9659H149.995Z" fill="black"/>
</svg>
