<svg width="82" height="25" viewBox="0 0 82 25" fill="none" xmlns="http://www.w3.org/2000/svg">
<rect width="82" height="25" rx="4" fill="#F6F8FA"/>
<path d="M31.0653 9.81818C30.7841 6.57102 28.4062 4.73011 25.108 4.73011C21.5795 4.73011 18.7926 7.08239 18.7926 11.4545C18.7926 15.8075 21.5028 18.179 25.108 18.179C28.9432 18.179 30.8864 15.5199 31.0653 13.2955L27.4602 13.2699C27.2812 14.3885 26.4886 15.0852 25.1847 15.0852C23.4524 15.0852 22.4489 13.858 22.4489 11.4545C22.4489 9.17898 23.4205 7.82386 25.2102 7.82386C26.5781 7.82386 27.358 8.62926 27.4602 9.81818H31.0653ZM37.459 18.179C40.655 18.179 42.5471 16.1335 42.5471 13.1165C42.5471 10.0994 40.655 8.05398 37.459 8.05398C34.263 8.05398 32.3709 10.0994 32.3709 13.1165C32.3709 16.1335 34.263 18.179 37.459 18.179ZM37.4846 15.571C36.5385 15.571 35.976 14.6314 35.976 13.0909C35.976 11.5504 36.5385 10.6108 37.4846 10.6108C38.3794 10.6108 38.9419 11.5504 38.9419 13.0909C38.9419 14.6314 38.3794 15.571 37.4846 15.571ZM43.9789 21.6818H47.5073V16.3892H47.5584C47.9675 17.3864 48.9135 18.1278 50.2942 18.1278C52.3908 18.1278 54.155 16.4915 54.155 13.0909C54.155 9.53693 52.263 8.05398 50.3198 8.05398C48.8624 8.05398 47.9419 8.89773 47.5584 9.89489H47.4817V8.18182H43.9789V21.6818ZM47.4306 13.0909C47.4306 11.6335 48.0186 10.7642 48.9902 10.7642C49.9618 10.7642 50.5243 11.6335 50.5243 13.0909C50.5243 14.5483 49.9618 15.4176 48.9902 15.4176C48.0186 15.4176 47.4306 14.5227 47.4306 13.0909ZM57.4821 21.6818C59.9494 21.6818 61.1064 20.4418 61.6497 18.8182L65.2292 8.18182H61.5218L59.911 14.983H59.8088L58.2235 8.18182H54.5417L57.9934 18.4347L57.9167 18.6136C57.6802 19.157 56.9963 19.1378 56.127 18.831L55.3599 21.3366C55.9096 21.554 56.6703 21.6818 57.4821 21.6818Z" fill="black"/>
</svg>
