<svg width="164" height="30" viewBox="0 0 164 30" fill="none" xmlns="http://www.w3.org/2000/svg">
<rect width="164" height="30" rx="4" fill="#F6F8FA"/>
<path d="M16.0653 12.8182C15.7841 9.57102 13.4062 7.73011 10.108 7.73011C6.57955 7.73011 3.79261 10.0824 3.79261 14.4545C3.79261 18.8075 6.50284 21.179 10.108 21.179C13.9432 21.179 15.8864 18.5199 16.0653 16.2955L12.4602 16.2699C12.2812 17.3885 11.4886 18.0852 10.1847 18.0852C8.45241 18.0852 7.44886 16.858 7.44886 14.4545C7.44886 12.179 8.42045 10.8239 10.2102 10.8239C11.5781 10.8239 12.358 11.6293 12.4602 12.8182H16.0653ZM22.459 21.179C25.655 21.179 27.5471 19.1335 27.5471 16.1165C27.5471 13.0994 25.655 11.054 22.459 11.054C19.263 11.054 17.3709 13.0994 17.3709 16.1165C17.3709 19.1335 19.263 21.179 22.459 21.179ZM22.4846 18.571C21.5385 18.571 20.976 17.6314 20.976 16.0909C20.976 14.5504 21.5385 13.6108 22.4846 13.6108C23.3794 13.6108 23.9419 14.5504 23.9419 16.0909C23.9419 17.6314 23.3794 18.571 22.4846 18.571ZM28.9789 24.6818H32.5073V19.3892H32.5584C32.9675 20.3864 33.9135 21.1278 35.2942 21.1278C37.3908 21.1278 39.155 19.4915 39.155 16.0909C39.155 12.5369 37.263 11.054 35.3198 11.054C33.8624 11.054 32.9419 11.8977 32.5584 12.8949H32.4817V11.1818H28.9789V24.6818ZM32.4306 16.0909C32.4306 14.6335 33.0186 13.7642 33.9902 13.7642C34.9618 13.7642 35.5243 14.6335 35.5243 16.0909C35.5243 17.5483 34.9618 18.4176 33.9902 18.4176C33.0186 18.4176 32.4306 17.5227 32.4306 16.0909ZM42.4821 24.6818C44.9494 24.6818 46.1064 23.4418 46.6497 21.8182L50.2292 11.1818H46.5218L44.911 17.983H44.8088L43.2235 11.1818H39.5417L42.9934 21.4347L42.9167 21.6136C42.6802 22.157 41.9963 22.1378 41.127 21.831L40.3599 24.3366C40.9096 24.554 41.6703 24.6818 42.4821 24.6818ZM57.5545 21.1534C58.8329 21.1534 59.7981 20.7188 60.3926 19.6193H60.4693V21H63.7676V14.2756C63.7676 12.4602 62.0481 11.054 59.242 11.054C56.3081 11.054 54.8635 12.5881 54.742 14.3778H57.9892C58.0723 13.7706 58.5197 13.483 59.1909 13.483C59.8045 13.483 60.2392 13.7642 60.2392 14.2756V14.3011C60.2392 14.87 59.6127 15.049 57.9636 15.1705C55.9373 15.3175 54.3585 16.1357 54.3585 18.2898C54.3585 20.2457 55.6752 21.1534 57.5545 21.1534ZM58.7051 18.929C58.1042 18.929 57.6824 18.6349 57.6824 18.0852C57.6824 17.5803 58.0403 17.1903 58.8585 17.0625C59.421 16.973 59.894 16.858 60.2647 16.7045V17.5227C60.2647 18.4176 59.5041 18.929 58.7051 18.929ZM65.4023 21H68.9052V19.3892H68.9819C69.391 20.3864 70.337 21.1278 71.7177 21.1278C73.8143 21.1278 75.5785 19.4915 75.5785 16.0909C75.5785 12.5369 73.6864 11.054 71.7433 11.054C70.2859 11.054 69.3654 11.8977 68.9819 12.8949H68.9308V7.90909H65.4023V21ZM68.854 16.0909C68.854 14.6335 69.4421 13.7642 70.4137 13.7642C71.3853 13.7642 71.9478 14.6335 71.9478 16.0909C71.9478 17.5483 71.3853 18.4176 70.4137 18.4176C69.4421 18.4176 68.854 17.5227 68.854 16.0909ZM81.7852 21.179C84.9812 21.179 86.8732 19.1335 86.8732 16.1165C86.8732 13.0994 84.9812 11.054 81.7852 11.054C78.5891 11.054 76.6971 13.0994 76.6971 16.1165C76.6971 19.1335 78.5891 21.179 81.7852 21.179ZM81.8107 18.571C80.8647 18.571 80.3022 17.6314 80.3022 16.0909C80.3022 14.5504 80.8647 13.6108 81.8107 13.6108C82.7056 13.6108 83.2681 14.5504 83.2681 16.0909C83.2681 17.6314 82.7056 18.571 81.8107 18.571ZM97.9011 11.1818H94.1937L92.6085 17.6761H92.5062L90.921 11.1818H87.2136L90.5119 21H94.6028L97.9011 11.1818ZM103.31 21.179C106.033 21.179 107.785 19.875 108.117 17.8295H104.896C104.691 18.3857 104.109 18.6989 103.387 18.6989C102.339 18.6989 101.725 18.0085 101.725 17.0625V16.9091H108.117V16.0909C108.117 12.9652 106.2 11.054 103.234 11.054C100.191 11.054 98.2479 13.0739 98.2479 16.1165C98.2479 19.2933 100.165 21.179 103.31 21.179ZM101.725 14.9659C101.744 14.1158 102.447 13.5341 103.31 13.5341C104.186 13.5341 104.851 14.1222 104.87 14.9659H101.725ZM117.873 21.179C120.781 21.179 122.565 19.5107 122.603 16.9091H119.33C119.254 17.9382 118.698 18.4943 117.924 18.4943C116.997 18.4943 116.39 17.7017 116.39 16.0909C116.39 14.4801 116.997 13.6875 117.924 13.6875C118.704 13.6875 119.235 14.2436 119.33 15.2727H122.603C122.584 12.7159 120.762 11.054 117.873 11.054C114.677 11.054 112.785 13.0994 112.785 16.1165C112.785 19.1335 114.677 21.179 117.873 21.179ZM128.789 21.179C131.985 21.179 133.877 19.1335 133.877 16.1165C133.877 13.0994 131.985 11.054 128.789 11.054C125.593 11.054 123.701 13.0994 123.701 16.1165C123.701 19.1335 125.593 21.179 128.789 21.179ZM128.815 18.571C127.869 18.571 127.306 17.6314 127.306 16.0909C127.306 14.5504 127.869 13.6108 128.815 13.6108C129.71 13.6108 130.272 14.5504 130.272 16.0909C130.272 17.6314 129.71 18.571 128.815 18.571ZM138.863 21.1278C140.244 21.1278 141.19 20.3864 141.599 19.3892H141.675V21H145.178V7.90909H141.65V12.8949H141.599C141.215 11.8977 140.295 11.054 138.837 11.054C136.894 11.054 135.002 12.5369 135.002 16.0909C135.002 19.4915 136.766 21.1278 138.863 21.1278ZM140.167 18.4176C139.195 18.4176 138.633 17.5483 138.633 16.0909C138.633 14.6335 139.195 13.7642 140.167 13.7642C141.138 13.7642 141.727 14.6335 141.727 16.0909C141.727 17.5227 141.138 18.4176 140.167 18.4176ZM151.615 21.179C154.338 21.179 156.089 19.875 156.422 17.8295H153.2C152.996 18.3857 152.414 18.6989 151.692 18.6989C150.643 18.6989 150.03 18.0085 150.03 17.0625V16.9091H156.422V16.0909C156.422 12.9652 154.504 11.054 151.538 11.054C148.496 11.054 146.553 13.0739 146.553 16.1165C146.553 19.2933 148.47 21.179 151.615 21.179ZM150.03 14.9659C150.049 14.1158 150.752 13.5341 151.615 13.5341C152.491 13.5341 153.156 14.1222 153.175 14.9659H150.03Z" fill="black"/>
</svg>
